<svg width="20" height="18" viewBox="0 0 20 18" fill="none" xmlns="http://www.w3.org/2000/svg">
<path d="M9.99929 0C10.554 0 11.0658 0.29299 11.347 0.773494L19.7852 15.1495C20.0703 15.634 20.0703 16.2317 19.793 16.7161C19.5156 17.2005 18.996 17.5013 18.4374 17.5013H1.56117C1.00254 17.5013 0.482969 17.2005 0.205605 16.7161C-0.0717595 16.2317 -0.067853 15.6301 0.213418 15.1495L8.65154 0.773494C8.93281 0.29299 9.44456 0 9.99929 0ZM9.99929 5.00037C9.47972 5.00037 9.06172 5.41837 9.06172 5.93793V10.3133C9.06172 10.8328 9.47972 11.2508 9.99929 11.2508C10.5189 11.2508 10.9369 10.8328 10.9369 10.3133V5.93793C10.9369 5.41837 10.5189 5.00037 9.99929 5.00037ZM11.2494 13.751C11.2494 13.4195 11.1177 13.1015 10.8832 12.8671C10.6488 12.6326 10.3308 12.5009 9.99929 12.5009C9.66775 12.5009 9.34978 12.6326 9.11534 12.8671C8.88091 13.1015 8.7492 13.4195 8.7492 13.751C8.7492 14.0826 8.88091 14.4005 9.11534 14.635C9.34978 14.8694 9.66775 15.0011 9.99929 15.0011C10.3308 15.0011 10.6488 14.8694 10.8832 14.635C11.1177 14.4005 11.2494 14.0826 11.2494 13.751Z" fill="black"/>
</svg>
