<svg width="15" height="20" viewBox="0 0 15 20" fill="none" xmlns="http://www.w3.org/2000/svg">
<path d="M2.5 0C1.12109 0 0 1.12109 0 2.5V17.5C0 18.8789 1.12109 20 2.5 20H12.5C13.8789 20 15 18.8789 15 17.5V6.25H10C9.30859 6.25 8.75 5.69141 8.75 5V0H2.5ZM10 0V5H15L10 0ZM4.375 10H10.625C10.9688 10 11.25 10.2812 11.25 10.625C11.25 10.9688 10.9688 11.25 10.625 11.25H4.375C4.03125 11.25 3.75 10.9688 3.75 10.625C3.75 10.2812 4.03125 10 4.375 10ZM4.375 12.5H10.625C10.9688 12.5 11.25 12.7812 11.25 13.125C11.25 13.4688 10.9688 13.75 10.625 13.75H4.375C4.03125 13.75 3.75 13.4688 3.75 13.125C3.75 12.7812 4.03125 12.5 4.375 12.5ZM4.375 15H10.625C10.9688 15 11.25 15.2812 11.25 15.625C11.25 15.9688 10.9688 16.25 10.625 16.25H4.375C4.03125 16.25 3.75 15.9688 3.75 15.625C3.75 15.2812 4.03125 15 4.375 15Z" fill="black"/>
</svg>
