<svg width="13" height="15" viewBox="0 0 13 15" fill="none" xmlns="http://www.w3.org/2000/svg">
<path d="M6.7633 15.0002C5.3653 15.0002 4.15936 14.6916 3.1455 14.0745C2.13793 13.451 1.36021 12.582 0.81235 11.4674C0.270782 10.3465 0 9.04292 0 7.55676C0 6.07059 0.270782 4.76076 0.81235 3.62724C1.36021 2.48743 2.12219 1.59951 3.09827 0.963486C4.08065 0.321162 5.22676 0 6.53659 0C7.29227 0 8.0385 0.125946 8.77528 0.377837C9.51207 0.629729 10.1827 1.03905 10.7873 1.60581C11.3918 2.16627 11.8736 2.90935 12.2325 3.83505C12.5914 4.76076 12.7709 5.90057 12.7709 7.25449V8.19908H1.58692V6.27211H10.5039C10.5039 5.45346 10.3402 4.72297 10.0127 4.08065C9.69155 3.43832 9.23184 2.93139 8.6336 2.55985C8.04165 2.18831 7.34265 2.00254 6.53659 2.00254C5.64868 2.00254 4.8804 2.22294 4.23178 2.66376C3.58946 3.09827 3.09512 3.66503 2.74877 4.36403C2.40242 5.06303 2.22924 5.8124 2.22924 6.61216V7.89681C2.22924 8.99254 2.41816 9.92139 2.796 10.6834C3.18013 11.439 3.71225 12.0152 4.39236 12.412C5.07247 12.8024 5.86279 12.9976 6.7633 12.9976C7.34895 12.9976 7.87792 12.9158 8.35022 12.752C8.82881 12.582 9.24128 12.3301 9.58763 11.9964C9.93398 11.6563 10.2016 11.2344 10.3905 10.7306L12.5442 11.3351C12.3175 12.0656 11.9365 12.7079 11.4013 13.2621C10.866 13.81 10.2048 14.2382 9.41761 14.5468C8.63045 14.849 7.74568 15.0002 6.7633 15.0002Z" fill="black"/>
</svg>
