<svg width="14" height="13" viewBox="0 0 14 13" fill="none" xmlns="http://www.w3.org/2000/svg">
<path d="M2.58539 4.95097C2.80882 4.31841 3.17153 3.72357 3.68222 3.21578C5.49576 1.40223 8.43516 1.40223 10.2487 3.21578L10.7449 3.71486H9.28534C8.77175 3.71486 8.35681 4.1298 8.35681 4.6434C8.35681 5.15699 8.77175 5.57193 9.28534 5.57193H12.985H12.9966C13.5102 5.57193 13.9251 5.15699 13.9251 4.6434V0.92926C13.9251 0.415664 13.5102 0.000725462 12.9966 0.000725462C12.483 0.000725462 12.068 0.415664 12.068 0.92926V2.41491L11.5603 1.90422C9.02129 -0.63474 4.90672 -0.63474 2.36776 1.90422C1.65976 2.61223 1.14906 3.44501 0.835681 4.33582C0.664482 4.8204 0.91983 5.3485 1.40151 5.5197C1.88318 5.6909 2.41419 5.43555 2.58539 4.95388V4.95097ZM0.667384 7.46672C0.522301 7.51025 0.38302 7.58859 0.269855 7.70466C0.153788 7.82073 0.0754434 7.96001 0.0348201 8.11089C0.0261151 8.14571 0.01741 8.18343 0.0116067 8.22116C0.00290166 8.27048 0 8.31981 0 8.36914V12.0717C0 12.5853 0.414939 13.0002 0.928534 13.0002C1.44213 13.0002 1.85707 12.5853 1.85707 12.0717V10.5889L2.36776 11.0967C4.90672 13.6328 9.02129 13.6328 11.5574 11.0967C12.2654 10.3887 12.779 9.55593 13.0923 8.66801C13.2635 8.18344 13.0082 7.65533 12.5265 7.48413C12.0448 7.31293 11.5138 7.56828 11.3426 8.04996C11.1192 8.68252 10.7565 9.27736 10.2458 9.78516C8.43225 11.5987 5.49286 11.5987 3.67932 9.78516L3.67642 9.78226L3.18023 9.28607H4.64267C5.15627 9.28607 5.57121 8.87113 5.57121 8.35753C5.57121 7.84394 5.15627 7.429 4.64267 7.429H0.940141C0.893714 7.429 0.847288 7.4319 0.800861 7.43771C0.754434 7.44351 0.710909 7.45221 0.667384 7.46672Z" fill="black"/>
</svg>
